<svg xmlns="http://www.w3.org/2000/svg" xmlns:xlink="http://www.w3.org/1999/xlink" width="750" height="98.889" viewBox="0 0 750 98.889">
  <defs>
    <linearGradient id="linear-gradient" x1="0.163" y1="0.5" x2="1.066" y2="1.78" gradientUnits="objectBoundingBox">
      <stop offset="0" stop-color="#7937ed"/>
      <stop offset="1" stop-color="#dda0c8"/>
    </linearGradient>
  </defs>
  <path id="Intersection_26" data-name="Intersection 26" d="M473.544,119.888V29.873H528.9L491.7,76.98h28.945l-14.951,42.908Zm-366.1-15.879Q93.886,90.636,93.885,70.577t13.561-33.433q13.56-13.373,34.123-13.372t34.123,13.372q13.56,13.373,13.561,33.433T175.692,104.01q-13.56,13.373-34.123,13.372T107.446,104.01Zm15.225-52.862q-7.19,7.72-7.187,19.43t7.187,19.4q7.19,7.69,18.9,7.69t18.9-7.69q7.19-7.69,7.19-19.4t-7.19-19.43q-7.19-7.724-18.9-7.724T122.672,51.147Zm581.587,64.415V25.53H772V44.869H725.1V60.5H765.47V79.147H725.1V96.285h46.773v19.277Zm-59.644,0V44.869H615.986V25.53h78.667V44.869h-28.69v70.693Zm-59.831,0V25.53h21.6v90.032Zm-153.816,0v-36.1H395.494v36.1H374.149V25.53h21.345V60.122h35.473V25.53h21.345v90.032Zm-116.462,0V44.869H285.876V25.53h78.667V44.869H335.849v70.693Zm-57.635,0L237.722,85.989H222.276v29.573h-21.1V25.53H246.2q14.252,0,23.074,9.2t8.819,21.19a29.453,29.453,0,0,1-4.833,16.323A28.6,28.6,0,0,1,259.7,83.29l21.722,32.272ZM222.276,67.343h22.353a12.958,12.958,0,0,0,9.133-3.327,10.877,10.877,0,0,0,.127-16.071,11.712,11.712,0,0,0-8.384-3.327h-23.23ZM22,115.562V25.53H88.987V44.993H43.346V62.824H82.4V81.847H43.346v33.715Zm486.784-4.544,37.207-47.11H517.046L532,21h31.565v90.018Z" transform="translate(-22 -21)" fill="url(#linear-gradient)"/>
</svg>
